# xmcd CD database file
#
# Track frame offsets:
#	150
#	16725
#	35827
#	48795
#	62360
#	71425
#	83202
#	96872
#	106787
#	118685
#	133137
#	152885
#	166592
#	195080
#	209827
#	223207
#	238100
#
# Disc length: 3427 seconds
#
# Revision: 1
# Processed by: cddbd v1.5.1PL0 Copyright (c) Steve Scherf et al.
# Submitted via: CDex 1.51
#
DISCID=e50d6111
DTITLE=Ray Charles - Best Of Ray Charles
DYEAR=1900
DGENRE=
TTITLE0=Georgia on My Mind
TTITLE1=I Can't Stop Loving You
TTITLE2=Unchain My Heart
TTITLE3=You Are My Sunshine
TTITLE4=Hit The Road Jack
TTITLE5=In The Heat Of The Night
TTITLE6=Let's Go Get Stoned
TTITLE7=Busted
TTITLE8=Don't Set Me Free
TTITLE9=Hide Nor Hair
TTITLE10=That Lucky Old Sun
TTITLE11=At The Club
TTITLE12=Makin' Whoopee Part1 2
TTITLE13=You Don't Know Me
TTITLE14=Crying Time
TTITLE15=Here We Go Again
TTITLE16=Ellie My Love
EXTD=
EXTT0=
EXTT1=
EXTT2=
EXTT3=
EXTT4=
EXTT5=
EXTT6=
EXTT7=
EXTT8=
EXTT9=
EXTT10=
EXTT11=
EXTT12=
EXTT13=
EXTT14=
EXTT15=
EXTT16=
PLAYORDER=
